<svg xmlns="http://www.w3.org/2000/svg" xmlns:xlink="http://www.w3.org/1999/xlink" xmlns:lucid="lucid" width="1066.07" height="1000"><g transform="translate(6.074074074074076 -180)" lucid:page-tab-id="0_0"><path d="M860 206c0-3.3 2.7-6 6-6h168c3.3 0 6 2.7 6 6v48c0 3.3-2.7 6-6 6H866c-3.3 0-6-2.7-6-6z" stroke="#5e5e5e" stroke-width="3" fill-opacity="0"/><use xlink:href="#a" transform="matrix(1,0,0,1,868,208) translate(1.8765432098765302 17.77777777777778)"/><use xlink:href="#b" transform="matrix(1,0,0,1,868,208) translate(45.08641975308641 17.77777777777778)"/><use xlink:href="#c" transform="matrix(1,0,0,1,868,208) translate(87 17.77777777777778)"/><path d="M200 286c0-3.3 2.7-6 6-6h548c3.3 0 6 2.7 6 6v668c0 3.3-2.7 6-6 6H206c-3.3 0-6-2.7-6-6z" stroke="#5e5e5e" stroke-width="3" fill="#fff"/><path d="M360 306c0-3.3 2.7-6 6-6h228c3.3 0 6 2.7 6 6v48c0 3.3-2.7 6-6 6H366c-3.3 0-6-2.7-6-6z" stroke="#000" stroke-opacity="0" stroke-width="3" fill="#fff" fill-opacity="0"/><use xlink:href="#d" transform="matrix(1,0,0,1,365,305) translate(77.99382716049382 30.27777777777778)"/><path d="M560 420c0 33.14-35.82 60-80 60s-80-26.86-80-60 35.82-60 80-60 80 26.86 80 60z" stroke="#5e5e5e" stroke-width="3" fill="#fff"/><use xlink:href="#e" transform="matrix(1,0,0,1,400,360) translate(18.554999999999986 63.15)"/><use xlink:href="#f" transform="matrix(1,0,0,1,400,360) translate(85.505 63.15)"/><path d="M560 640c0 33.14-35.82 60-80 60s-80-26.86-80-60 35.82-60 80-60 80 26.86 80 60z" stroke="#5e5e5e" stroke-width="3" fill="#fff"/><use xlink:href="#g" transform="matrix(1,0,0,1,400,580) translate(48.005 63.15)"/><use xlink:href="#h" transform="matrix(1,0,0,1,400,580) translate(85.005 63.15)"/><path d="M560 860c0 33.14-35.82 60-80 60s-80-26.86-80-60 35.82-60 80-60 80 26.86 80 60z" stroke="#5e5e5e" stroke-width="3" fill="#fff"/><use xlink:href="#i" transform="matrix(1,0,0,1,400,800) translate(20.07999999999999 63.15)"/><use xlink:href="#j" transform="matrix(1,0,0,1,400,800) translate(90.03 63.15)"/><path d="M99.75 339.75c0 10.9-8.84 19.75-19.75 19.75-10.9 0-19.75-8.84-19.75-19.75C60.25 328.85 69.1 320 80 320c10.9 0 19.75 8.84 19.75 19.75z" stroke="#5e5e5e" stroke-width="3" fill="#fff"/><path d="M80 359.5v49.3c0 3.3 1.44 8.27 3.2 11.07L120 478m-40-63.2L40 478m0-98.75h80" stroke="#5e5e5e" stroke-width="3" fill="none"/><path d="M40 326c0-3.3 2.7-6 6-6h68c3.3 0 6 2.7 6 6v168c0 3.3-2.7 6-6 6H46c-3.3 0-6-2.7-6-6z" fill="none"/><use xlink:href="#k" transform="matrix(1,0,0,1,-40,478) translate(98.42592592592592 17.77777777777778)"/><path d="M99.75 699.75c0 10.9-8.84 19.75-19.75 19.75-10.9 0-19.75-8.84-19.75-19.75C60.25 688.85 69.1 680 80 680c10.9 0 19.75 8.84 19.75 19.75z" stroke="#5e5e5e" stroke-width="3" fill="#fff"/><path d="M80 719.5v49.3c0 3.3 1.44 8.27 3.2 11.07L120 838m-40-63.2L40 838m0-98.75h80" stroke="#5e5e5e" stroke-width="3" fill="none"/><path d="M40 686c0-3.3 2.7-6 6-6h68c3.3 0 6 2.7 6 6v168c0 3.3-2.7 6-6 6H46c-3.3 0-6-2.7-6-6z" fill="none"/><use xlink:href="#l" transform="matrix(1,0,0,1,-40,838) translate(55.925925925925924 17.77777777777778)"/><use xlink:href="#m" transform="matrix(1,0,0,1,-40,838) translate(123.7037037037037 17.77777777777778)"/><path d="M979.75 599.75c0 10.9-8.84 19.75-19.75 19.75-10.9 0-19.75-8.84-19.75-19.75 0-10.9 8.84-19.75 19.75-19.75 10.9 0 19.75 8.84 19.75 19.75z" stroke="#5e5e5e" stroke-width="3" fill="#fff"/><path d="M960 619.5v49.3c0 3.3 1.44 8.27 3.2 11.07L1000 738m-40-63.2L920 738m0-98.75h80" stroke="#5e5e5e" stroke-width="3" fill="none"/><path d="M920 586c0-3.3 2.7-6 6-6h68c3.3 0 6 2.7 6 6v168c0 3.3-2.7 6-6 6h-68c-3.3 0-6-2.7-6-6z" fill="none"/><use xlink:href="#n" transform="matrix(1,0,0,1,840,738) translate(104.5679012345679 17.77777777777778)"/><path d="M99.75 999.75c0 10.9-8.84 19.75-19.75 19.75-10.9 0-19.75-8.84-19.75-19.75C60.25 988.85 69.1 980 80 980c10.9 0 19.75 8.84 19.75 19.75z" stroke="#5e5e5e" stroke-width="3" fill="#fff"/><path d="M80 1019.5v49.3c0 3.3 1.44 8.27 3.2 11.07L120 1138m-40-63.2L40 1138m0-98.75h80" stroke="#5e5e5e" stroke-width="3" fill="none"/><path d="M40 986c0-3.3 2.7-6 6-6h68c3.3 0 6 2.7 6 6v168c0 3.3-2.7 6-6 6H46c-3.3 0-6-2.7-6-6z" fill="none"/><use xlink:href="#o" transform="matrix(1,0,0,1,-40,1138) translate(69.47530864197532 17.77777777777778)"/><use xlink:href="#m" transform="matrix(1,0,0,1,-40,1138) translate(110.15432098765433 17.77777777777778)"/><path d="M396.75 417.85L82.5 398.8M378.8 426.96l17.8-9.1-16.56-11.22M82.52 398.8l-4-.25M82.46 757.93l320.93-93.1M82.5 757.92l-3.88 1.12M389.55 679.45l13.7-14.57-19.37-4.98M79.45 759.1l317.32 100.35M79.48 759.1l-3.84-1.2M377.14 863.92l19.5-4.5-13.36-14.9M562.36 419.48l296.08-178.54" stroke="#5e5e5e" stroke-width="2" fill="none"/><path d="M562.9 420.33l-1.44.86.04-1.18v-.43l-.03-.75.4-.24" fill="#5e5e5e"/><path d="M848.83 258.62l9.5-17.6-20 .17M562.5 640.06l335.68 19.83" stroke="#5e5e5e" stroke-width="2" fill="none"/><path d="M562.58 639.06l-.12 2-1-.06.04-.98v-.43l-.03-.6" fill="#5e5e5e"/><path d="M880.25 669.03l17.8-9.15-16.6-11.17M80.9 978.06l115.97-57" stroke="#5e5e5e" stroke-width="2" fill="none"/><path d="M81.2 978.64l-1.12-.14-1.27.03-1.8.32 3.48-1.7" fill="#5e5e5e"/><path d="M185.78 937.85l10.96-16.73-19.94-1.54" stroke="#5e5e5e" stroke-width="2" fill="none"/><defs><path fill="#333" d="M30 0v-248h33v221h125V0H30" id="p"/><path fill="#333" d="M100-194c62-1 85 37 85 99 1 63-27 99-86 99S16-35 15-95c0-66 28-99 85-99zM99-20c44 1 53-31 53-75 0-43-8-75-51-75s-53 32-53 75 10 74 51 75" id="q"/><path fill="#333" d="M177-190C167-65 218 103 67 71c-23-6-38-20-44-43l32-5c15 47 100 32 89-28v-30C133-14 115 1 83 1 29 1 15-40 15-95c0-56 16-97 71-98 29-1 48 16 59 35 1-10 0-23 2-32h30zM94-22c36 0 50-32 50-73 0-42-14-75-50-75-39 0-46 34-46 75s6 73 46 73" id="r"/><g id="a"><use transform="matrix(0.06172839506172839,0,0,0.06172839506172839,0,0)" xlink:href="#p"/><use transform="matrix(0.06172839506172839,0,0,0.06172839506172839,12.345679012345679,0)" xlink:href="#q"/><use transform="matrix(0.06172839506172839,0,0,0.06172839506172839,24.691358024691358,0)" xlink:href="#r"/></g><path fill="#333" d="M24-231v-30h32v30H24zM24 0v-190h32V0H24" id="s"/><path fill="#333" d="M117-194c89-4 53 116 60 194h-32v-121c0-31-8-49-39-48C34-167 62-67 57 0H25l-1-190h30c1 10-1 24 2 32 11-22 29-35 61-36" id="t"/><path fill="#333" d="M59-47c-2 24 18 29 38 22v24C64 9 27 4 27-40v-127H5v-23h24l9-43h21v43h35v23H59v120" id="u"/><g id="b"><use transform="matrix(0.06172839506172839,0,0,0.06172839506172839,0,0)" xlink:href="#s"/><use transform="matrix(0.06172839506172839,0,0,0.06172839506172839,4.876543209876543,0)" xlink:href="#t"/><use transform="matrix(0.06172839506172839,0,0,0.06172839506172839,17.22222222222222,0)" xlink:href="#u"/><use transform="matrix(0.06172839506172839,0,0,0.06172839506172839,23.39506172839506,0)" xlink:href="#q"/></g><path fill="#333" d="M30-248c118-7 216 8 213 122C240-48 200 0 122 0H30v-248zM63-27c89 8 146-16 146-99s-60-101-146-95v194" id="v"/><path fill="#333" d="M135-143c-3-34-86-38-87 0 15 53 115 12 119 90S17 21 10-45l28-5c4 36 97 45 98 0-10-56-113-15-118-90-4-57 82-63 122-42 12 7 21 19 24 35" id="w"/><path fill="#333" d="M96-169c-40 0-48 33-48 73s9 75 48 75c24 0 41-14 43-38l32 2c-6 37-31 61-74 61-59 0-76-41-82-99-10-93 101-131 147-64 4 7 5 14 7 22l-32 3c-4-21-16-35-41-35" id="x"/><path fill="#333" d="M114-163C36-179 61-72 57 0H25l-1-190h30c1 12-1 29 2 39 6-27 23-49 58-41v29" id="y"/><path fill="#333" d="M85-194c31 0 48 13 60 33l-1-100h32l1 261h-30c-2-10 0-23-3-31C134-8 116 4 85 4 32 4 16-35 15-94c0-66 23-100 70-100zm9 24c-40 0-46 34-46 75 0 40 6 74 45 74 42 0 51-32 51-76 0-42-9-74-50-73" id="z"/><g id="c"><use transform="matrix(0.06172839506172839,0,0,0.06172839506172839,0,0)" xlink:href="#v"/><use transform="matrix(0.06172839506172839,0,0,0.06172839506172839,15.987654320987653,0)" xlink:href="#s"/><use transform="matrix(0.06172839506172839,0,0,0.06172839506172839,20.864197530864196,0)" xlink:href="#w"/><use transform="matrix(0.06172839506172839,0,0,0.06172839506172839,31.975308641975307,0)" xlink:href="#x"/><use transform="matrix(0.06172839506172839,0,0,0.06172839506172839,43.08641975308642,0)" xlink:href="#q"/><use transform="matrix(0.06172839506172839,0,0,0.06172839506172839,55.432098765432094,0)" xlink:href="#y"/><use transform="matrix(0.06172839506172839,0,0,0.06172839506172839,62.77777777777777,0)" xlink:href="#z"/></g><path fill="#333" d="M185-189c-5-48-123-54-124 2 14 75 158 14 163 119 3 78-121 87-175 55-17-10-28-26-33-46l33-7c5 56 141 63 141-1 0-78-155-14-162-118-5-82 145-84 179-34 5 7 8 16 11 25" id="A"/><path fill="#333" d="M179-190L93 31C79 59 56 82 12 73V49c39 6 53-20 64-50L1-190h34L92-34l54-156h33" id="B"/><path fill="#333" d="M100-194c63 0 86 42 84 106H49c0 40 14 67 53 68 26 1 43-12 49-29l28 8c-11 28-37 45-77 45C44 4 14-33 15-96c1-61 26-98 85-98zm52 81c6-60-76-77-97-28-3 7-6 17-6 28h103" id="C"/><path fill="#333" d="M210-169c-67 3-38 105-44 169h-31v-121c0-29-5-50-35-48C34-165 62-65 56 0H25l-1-190h30c1 10-1 24 2 32 10-44 99-50 107 0 11-21 27-35 58-36 85-2 47 119 55 194h-31v-121c0-29-5-49-35-48" id="D"/><g id="d"><use transform="matrix(0.06172839506172839,0,0,0.06172839506172839,0,0)" xlink:href="#A"/><use transform="matrix(0.06172839506172839,0,0,0.06172839506172839,14.814814814814813,0)" xlink:href="#B"/><use transform="matrix(0.06172839506172839,0,0,0.06172839506172839,25.925925925925924,0)" xlink:href="#w"/><use transform="matrix(0.06172839506172839,0,0,0.06172839506172839,37.03703703703704,0)" xlink:href="#u"/><use transform="matrix(0.06172839506172839,0,0,0.06172839506172839,43.20987654320988,0)" xlink:href="#C"/><use transform="matrix(0.06172839506172839,0,0,0.06172839506172839,55.55555555555556,0)" xlink:href="#D"/></g><path d="M212-179c-10-28-35-45-73-45-59 0-87 40-87 99 0 60 29 101 89 101 43 0 62-24 78-52l27 14C228-24 195 4 139 4 59 4 22-46 18-125c-6-104 99-153 187-111 19 9 31 26 39 46" id="E"/><path d="M106-169C34-169 62-67 57 0H25v-261h32l-1 103c12-21 28-36 61-36 89 0 53 116 60 194h-32v-121c2-32-8-49-39-48" id="F"/><path d="M100-194c62-1 85 37 85 99 1 63-27 99-86 99S16-35 15-95c0-66 28-99 85-99zM99-20c44 1 53-31 53-75 0-43-8-75-51-75s-53 32-53 75 10 74 51 75" id="G"/><path d="M135-143c-3-34-86-38-87 0 15 53 115 12 119 90S17 21 10-45l28-5c4 36 97 45 98 0-10-56-113-15-118-90-4-57 82-63 122-42 12 7 21 19 24 35" id="H"/><path d="M100-194c63 0 86 42 84 106H49c0 40 14 67 53 68 26 1 43-12 49-29l28 8c-11 28-37 45-77 45C44 4 14-33 15-96c1-61 26-98 85-98zm52 81c6-60-76-77-97-28-3 7-6 17-6 28h103" id="I"/><g id="e"><use transform="matrix(0.05,0,0,0.05,0,0)" xlink:href="#E"/><use transform="matrix(0.05,0,0,0.05,12.950000000000001,0)" xlink:href="#F"/><use transform="matrix(0.05,0,0,0.05,22.950000000000003,0)" xlink:href="#G"/><use transform="matrix(0.05,0,0,0.05,32.95,0)" xlink:href="#G"/><use transform="matrix(0.05,0,0,0.05,42.95,0)" xlink:href="#H"/><use transform="matrix(0.05,0,0,0.05,51.95,0)" xlink:href="#I"/></g><path d="M101-234c-31-9-42 10-38 44h38v23H63V0H32v-167H5v-23h27c-7-52 17-82 69-68v24" id="J"/><path d="M141-36C126-15 110 5 73 4 37 3 15-17 15-53c-1-64 63-63 125-63 3-35-9-54-41-54-24 1-41 7-42 31l-33-3c5-37 33-52 76-52 45 0 72 20 72 64v82c-1 20 7 32 28 27v20c-31 9-61-2-59-35zM48-53c0 20 12 33 32 33 41-3 63-29 60-74-43 2-92-5-92 41" id="K"/><path d="M59-47c-2 24 18 29 38 22v24C64 9 27 4 27-40v-127H5v-23h24l9-43h21v43h35v23H59v120" id="L"/><path d="M84 4C-5 8 30-112 23-190h32v120c0 31 7 50 39 49 72-2 45-101 50-169h31l1 190h-30c-1-10 1-25-2-33-11 22-28 36-60 37" id="M"/><path d="M114-163C36-179 61-72 57 0H25l-1-190h30c1 12-1 29 2 39 6-27 23-49 58-41v29" id="N"/><g id="f"><use transform="matrix(0.05,0,0,0.05,0,0)" xlink:href="#J"/><use transform="matrix(0.05,0,0,0.05,5,0)" xlink:href="#I"/><use transform="matrix(0.05,0,0,0.05,15,0)" xlink:href="#K"/><use transform="matrix(0.05,0,0,0.05,25,0)" xlink:href="#L"/><use transform="matrix(0.05,0,0,0.05,30,0)" xlink:href="#M"/><use transform="matrix(0.05,0,0,0.05,40,0)" xlink:href="#N"/><use transform="matrix(0.05,0,0,0.05,45.95,0)" xlink:href="#I"/></g><path d="M205 0l-28-72H64L36 0H1l101-248h38L239 0h-34zm-38-99l-47-123c-12 45-31 82-46 123h93" id="O"/><path d="M85-194c31 0 48 13 60 33l-1-100h32l1 261h-30c-2-10 0-23-3-31C134-8 116 4 85 4 32 4 16-35 15-94c0-66 23-100 70-100zm9 24c-40 0-46 34-46 75 0 40 6 74 45 74 42 0 51-32 51-76 0-42-9-74-50-73" id="P"/><g id="g"><use transform="matrix(0.05,0,0,0.05,0,0)" xlink:href="#O"/><use transform="matrix(0.05,0,0,0.05,12,0)" xlink:href="#P"/><use transform="matrix(0.05,0,0,0.05,22,0)" xlink:href="#P"/></g><path d="M160-131c35 5 61 23 61 61C221 17 115-2 30 0v-248c76 3 177-17 177 60 0 33-19 50-47 57zm-97-11c50-1 110 9 110-42 0-47-63-36-110-37v79zm0 115c55-2 124 14 124-45 0-56-70-42-124-44v89" id="Q"/><g id="h"><use transform="matrix(0.05,0,0,0.05,0,0)" xlink:href="#Q"/><use transform="matrix(0.05,0,0,0.05,12,0)" xlink:href="#G"/><use transform="matrix(0.05,0,0,0.05,22,0)" xlink:href="#L"/></g><path d="M240 0l2-218c-23 76-54 145-80 218h-23L58-218 59 0H30v-248h44l77 211c21-75 51-140 76-211h43V0h-30" id="R"/><path d="M117-194c89-4 53 116 60 194h-32v-121c0-31-8-49-39-48C34-167 62-67 57 0H25l-1-190h30c1 10-1 24 2 32 11-22 29-35 61-36" id="S"/><path d="M177-190C167-65 218 103 67 71c-23-6-38-20-44-43l32-5c15 47 100 32 89-28v-30C133-14 115 1 83 1 29 1 15-40 15-95c0-56 16-97 71-98 29-1 48 16 59 35 1-10 0-23 2-32h30zM94-22c36 0 50-32 50-73 0-42-14-75-50-75-39 0-46 34-46 75s6 73 46 73" id="T"/><g id="i"><use transform="matrix(0.05,0,0,0.05,0,0)" xlink:href="#R"/><use transform="matrix(0.05,0,0,0.05,14.950000000000001,0)" xlink:href="#K"/><use transform="matrix(0.05,0,0,0.05,24.950000000000003,0)" xlink:href="#S"/><use transform="matrix(0.05,0,0,0.05,34.95,0)" xlink:href="#K"/><use transform="matrix(0.05,0,0,0.05,44.95,0)" xlink:href="#T"/><use transform="matrix(0.05,0,0,0.05,54.95,0)" xlink:href="#I"/></g><path d="M108 0H70L1-190h34L89-25l56-165h34" id="U"/><g id="j"><use transform="matrix(0.05,0,0,0.05,0,0)" xlink:href="#H"/><use transform="matrix(0.05,0,0,0.05,9,0)" xlink:href="#I"/><use transform="matrix(0.05,0,0,0.05,19,0)" xlink:href="#N"/><use transform="matrix(0.05,0,0,0.05,24.95,0)" xlink:href="#U"/><use transform="matrix(0.05,0,0,0.05,33.95,0)" xlink:href="#I"/><use transform="matrix(0.05,0,0,0.05,43.95,0)" xlink:href="#N"/></g><path fill="#333" d="M84 4C-5 8 30-112 23-190h32v120c0 31 7 50 39 49 72-2 45-101 50-169h31l1 190h-30c-1-10 1-25-2-33-11 22-28 36-60 37" id="V"/><g id="k"><use transform="matrix(0.06172839506172839,0,0,0.06172839506172839,0,0)" xlink:href="#V"/><use transform="matrix(0.06172839506172839,0,0,0.06172839506172839,12.345679012345679,0)" xlink:href="#w"/><use transform="matrix(0.06172839506172839,0,0,0.06172839506172839,23.45679012345679,0)" xlink:href="#C"/><use transform="matrix(0.06172839506172839,0,0,0.06172839506172839,35.80246913580247,0)" xlink:href="#y"/></g><path fill="#333" d="M108 0H70L1-190h34L89-25l56-165h34" id="W"/><g id="l"><use transform="matrix(0.06172839506172839,0,0,0.06172839506172839,0,0)" xlink:href="#w"/><use transform="matrix(0.06172839506172839,0,0,0.06172839506172839,11.11111111111111,0)" xlink:href="#C"/><use transform="matrix(0.06172839506172839,0,0,0.06172839506172839,23.45679012345679,0)" xlink:href="#y"/><use transform="matrix(0.06172839506172839,0,0,0.06172839506172839,30.80246913580247,0)" xlink:href="#W"/><use transform="matrix(0.06172839506172839,0,0,0.06172839506172839,41.91358024691358,0)" xlink:href="#C"/><use transform="matrix(0.06172839506172839,0,0,0.06172839506172839,54.25925925925926,0)" xlink:href="#y"/></g><path fill="#333" d="M141-36C126-15 110 5 73 4 37 3 15-17 15-53c-1-64 63-63 125-63 3-35-9-54-41-54-24 1-41 7-42 31l-33-3c5-37 33-52 76-52 45 0 72 20 72 64v82c-1 20 7 32 28 27v20c-31 9-61-2-59-35zM48-53c0 20 12 33 32 33 41-3 63-29 60-74-43 2-92-5-92 41" id="X"/><g id="m"><use transform="matrix(0.06172839506172839,0,0,0.06172839506172839,0,0)" xlink:href="#X"/><use transform="matrix(0.06172839506172839,0,0,0.06172839506172839,12.345679012345679,0)" xlink:href="#z"/><use transform="matrix(0.06172839506172839,0,0,0.06172839506172839,24.691358024691358,0)" xlink:href="#D"/><use transform="matrix(0.06172839506172839,0,0,0.06172839506172839,43.148148148148145,0)" xlink:href="#s"/><use transform="matrix(0.06172839506172839,0,0,0.06172839506172839,48.02469135802469,0)" xlink:href="#t"/></g><path fill="#333" d="M115-194c53 0 69 39 70 98 0 66-23 100-70 100C84 3 66-7 56-30L54 0H23l1-261h32v101c10-23 28-34 59-34zm-8 174c40 0 45-34 45-75 0-40-5-75-45-74-42 0-51 32-51 76 0 43 10 73 51 73" id="Y"/><g id="n"><use transform="matrix(0.06172839506172839,0,0,0.06172839506172839,0,0)" xlink:href="#Y"/><use transform="matrix(0.06172839506172839,0,0,0.06172839506172839,12.345679012345679,0)" xlink:href="#q"/><use transform="matrix(0.06172839506172839,0,0,0.06172839506172839,24.691358024691358,0)" xlink:href="#u"/></g><g id="o"><use transform="matrix(0.06172839506172839,0,0,0.06172839506172839,0,0)" xlink:href="#w"/><use transform="matrix(0.06172839506172839,0,0,0.06172839506172839,11.11111111111111,0)" xlink:href="#s"/><use transform="matrix(0.06172839506172839,0,0,0.06172839506172839,15.987654320987653,0)" xlink:href="#u"/><use transform="matrix(0.06172839506172839,0,0,0.06172839506172839,22.160493827160494,0)" xlink:href="#C"/></g></defs></g></svg>